<?xml version="1.0" encoding="utf-8"?>
<!-- Generator: Adobe Illustrator 16.0.0, SVG Export Plug-In . SVG Version: 6.00 Build 0)  -->
<!DOCTYPE svg PUBLIC "-//W3C//DTD SVG 1.1//EN" "http://www.w3.org/Graphics/SVG/1.1/DTD/svg11.dtd">
<svg version="1.1" id="Layer_1" xmlns="http://www.w3.org/2000/svg" xmlns:xlink="http://www.w3.org/1999/xlink" x="0px" y="0px"
	 width="640px" height="640px" viewBox="0 0 640 640" enable-background="new 0 0 640 640" xml:space="preserve">
<g>
	<path fill="#BE1E2D" d="M320,527.549c0,0-150.924-217.035-157.767-227.29c-49.034-73.586-41.092-173.909,23.827-238.835
		c73.975-73.973,193.905-73.973,267.878,0c64.935,64.93,72.861,165.267,23.815,238.848C470.922,310.528,320,527.549,320,527.549z"/>
	<path fill="#FFFFFF" d="M451.482,195.364c0,72.607-58.867,131.479-131.482,131.479c-72.61,0-131.476-58.873-131.476-131.479
		c0-72.622,58.859-131.48,131.476-131.48C392.615,63.883,451.482,122.742,451.482,195.364z"/>
	<g>
		<path fill="#BE1E2D" d="M388.996,208.732c0,50.152-23.367,75.226-70.104,75.226c-45.338,0-68.006-24.492-68.006-73.479v-96.422
			h37.73v96.887c0,27.017,10.556,40.524,31.673,40.524c20.729,0,31.093-13.042,31.093-39.127v-98.284h37.613V208.732z"/>
	</g>
	<g>
		<path fill="#BE1E2D" d="M229.934,598.972c0,23.389-10.898,35.083-32.692,35.083c-21.144,0-31.714-11.422-31.714-34.268v-44.965
			h17.596v45.182c0,12.6,4.923,18.898,14.771,18.898c9.667,0,14.5-6.082,14.5-18.247v-45.833h17.54V598.972z"/>
		<path fill="#BE1E2D" d="M301.563,569.106h-22.211v63.591h-17.595v-63.591h-22.102v-14.283h61.908V569.106z"/>
		<path fill="#BE1E2D" d="M382.098,632.697h-17.703l-32.096-48.929c-1.882-2.86-3.185-5.015-3.909-6.462h-0.218
			c0.29,2.752,0.435,6.951,0.435,12.598v42.793h-16.563v-77.874h18.897l30.902,47.408c1.411,2.137,2.714,4.256,3.908,6.354h0.217
			c-0.29-1.811-0.433-5.376-0.433-10.698v-43.064h16.563V632.697z"/>
		<path fill="#BE1E2D" d="M444.495,632.697h-16.238v-7.983h-0.215c-3.73,6.229-9.252,9.342-16.563,9.342
			c-5.396,0-9.64-1.529-12.735-4.59c-3.097-3.06-4.645-7.141-4.645-12.246c0-10.787,6.391-17.014,19.171-18.68l15.097-2.009
			c0-6.083-3.293-9.125-9.884-9.125c-6.625,0-12.924,1.975-18.897,5.919v-12.924c2.389-1.23,5.656-2.316,9.802-3.259
			c4.145-0.941,7.919-1.411,11.323-1.411c15.855,0,23.785,7.91,23.785,23.729V632.697z M428.366,610.107v-3.748l-10.101,1.304
			c-5.576,0.725-8.362,3.239-8.362,7.548c0,1.954,0.679,3.556,2.035,4.806c1.357,1.251,3.195,1.874,5.512,1.874
			c3.223,0,5.849-1.115,7.875-3.34C427.351,616.324,428.366,613.508,428.366,610.107z"/>
		<path fill="#BE1E2D" d="M466.758,568.291c-2.896,0-5.268-0.86-7.112-2.579c-1.846-1.72-2.77-3.829-2.77-6.326
			c0-2.571,0.924-4.671,2.77-6.301c1.845-1.628,4.217-2.443,7.112-2.443c2.934,0,5.314,0.815,7.142,2.443
			c1.829,1.63,2.743,3.729,2.743,6.301c0,2.606-0.914,4.744-2.743,6.407C472.073,567.458,469.692,568.291,466.758,568.291z
			 M475.23,632.697h-17.161v-55.608h17.161V632.697z"/>
	</g>
</g>
</svg>
