<?xml version="1.0" encoding="utf-8"?>
<!-- Generator: Adobe Illustrator 16.0.0, SVG Export Plug-In . SVG Version: 6.00 Build 0)  -->
<!DOCTYPE svg PUBLIC "-//W3C//DTD SVG 1.1//EN" "http://www.w3.org/Graphics/SVG/1.1/DTD/svg11.dtd">
<svg version="1.1" id="Layer_1" xmlns="http://www.w3.org/2000/svg" xmlns:xlink="http://www.w3.org/1999/xlink" x="0px" y="0px"
	 width="512px" height="512px" viewBox="0 0 512 512" enable-background="new 0 0 512 512" xml:space="preserve">
<g opacity="0.8">
	
		<image overflow="visible" enable-background="new    " width="1554" height="2025" xlink:href="BF1ADE10.png"  transform="matrix(0.2395 0 0 0.2395 70.0032 -28.6672)">
	</image>
</g>
<g opacity="0.8">
	
		<image overflow="visible" enable-background="new    " width="1329" height="579" xlink:href="BF1ADE17.png"  transform="matrix(0.2395 0 0 0.2395 97.8264 402.2039)">
	</image>
</g>
<linearGradient id="SVGID_1_" gradientUnits="userSpaceOnUse" x1="126.7527" y1="48.4456" x2="390.6566" y2="312.3495">
	<stop  offset="0" style="stop-color:#FF2CA2"/>
	<stop  offset="1" style="stop-color:#B574B0"/>
</linearGradient>
<path fill="url(#SVGID_1_)" d="M256,415.173c0,0-119.459-171.786-124.875-179.903C92.313,177.026,98.6,97.618,149.985,46.228
	c58.552-58.551,153.479-58.551,212.029,0c51.396,51.392,57.671,130.811,18.85,189.052C375.458,243.397,256,415.173,256,415.173z"/>
<path fill="#FFFFFF" d="M360.9,153.438c0,57.927-46.966,104.896-104.899,104.896c-57.931,0-104.895-46.97-104.895-104.896
	c0-57.939,46.959-104.899,104.895-104.899C313.934,48.539,360.9,95.498,360.9,153.438z"/>
<g>
	<linearGradient id="SVGID_2_" gradientUnits="userSpaceOnUse" x1="144.4475" y1="30.7507" x2="408.3514" y2="294.6546">
		<stop  offset="0" style="stop-color:#FF2CA2"/>
		<stop  offset="1" style="stop-color:#B574B0"/>
	</linearGradient>
	<path fill="url(#SVGID_2_)" d="M311.046,164.103c0,40.012-18.645,60.018-55.93,60.018c-36.172,0-54.257-19.541-54.257-58.624V88.57
		h30.103v77.298c0,21.555,8.422,32.332,25.27,32.332c16.538,0,24.807-10.406,24.807-31.217V88.57h30.009L311.046,164.103
		L311.046,164.103z"/>
</g>
<g>
	<path fill="#F536A4" d="M184.712,471.707c0,18.513-8.626,27.77-25.876,27.77c-16.736,0-25.104-9.041-25.104-27.124v-35.59h13.928
		v35.762c0,9.973,3.896,14.958,11.69,14.958c7.651,0,11.478-4.813,11.478-14.441v-36.277h13.883L184.712,471.707L184.712,471.707z"
		/>
	<path fill="#F536A4" d="M241.406,448.066h-17.58v50.333H209.9v-50.333h-17.494v-11.305h49.001V448.066z"/>
	<path fill="#F536A4" d="M305.151,498.399h-14.013l-25.402-38.729c-1.489-2.263-2.521-3.968-3.095-5.113h-0.173
		c0.229,2.177,0.345,5.502,0.345,9.972v33.87h-13.108v-61.638h14.956l24.46,37.523c1.116,1.691,2.146,3.368,3.094,5.029h0.171
		c-0.229-1.433-0.343-4.256-0.343-8.468V436.76h13.108V498.399z"/>
	<path fill="#F536A4" d="M354.54,498.399h-12.854v-6.318h-0.171c-2.953,4.931-7.323,7.396-13.111,7.396
		c-4.271,0-7.628-1.211-10.077-3.634c-2.451-2.421-3.678-5.652-3.678-9.692c0-8.539,5.059-13.468,15.175-14.785l11.948-1.591
		c0-4.813-2.605-7.222-7.822-7.222c-5.243,0-10.229,1.563-14.958,4.686v-10.229c1.892-0.975,4.478-1.833,7.76-2.579
		c3.28-0.745,6.268-1.118,8.961-1.118c12.551,0,18.827,6.262,18.827,18.784V498.399L354.54,498.399z M341.773,480.519v-2.967
		l-7.994,1.032c-4.412,0.572-6.618,2.563-6.618,5.975c0,1.547,0.535,2.813,1.609,3.804c1.076,0.989,2.529,1.482,4.363,1.482
		c2.551,0,4.629-0.882,6.232-2.644C340.97,485.44,341.773,483.212,341.773,480.519z"/>
	<path fill="#F536A4" d="M372.162,447.421c-2.292,0-4.17-0.681-5.631-2.041s-2.192-3.031-2.192-5.008
		c0-2.034,0.731-3.696,2.192-4.986c1.461-1.288,3.339-1.935,5.631-1.935c2.32,0,4.206,0.646,5.651,1.935
		c1.448,1.29,2.172,2.952,2.172,4.986c0,2.063-0.724,3.755-2.172,5.071C376.368,446.762,374.483,447.421,372.162,447.421z
		 M378.869,498.399h-13.584v-44.015h13.584V498.399L378.869,498.399z"/>
</g>
</svg>
