<?xml version="1.0" encoding="utf-8"?>
<!-- Generator: Adobe Illustrator 16.0.0, SVG Export Plug-In . SVG Version: 6.00 Build 0)  -->
<!DOCTYPE svg PUBLIC "-//W3C//DTD SVG 1.1//EN" "http://www.w3.org/Graphics/SVG/1.1/DTD/svg11.dtd">
<svg version="1.1" id="Layer_1" xmlns="http://www.w3.org/2000/svg" xmlns:xlink="http://www.w3.org/1999/xlink" x="0px" y="0px"
	 width="64px" height="64px" viewBox="0 0 64 64" enable-background="new 0 0 64 64" xml:space="preserve">
<g>
	<path fill="#8D8D8D" d="M43.435,32.361c0,8.306-3.866,12.459-11.608,12.459c-7.51,0-11.263-4.056-11.263-12.171V16.68h6.25v16.046
		c0,4.476,1.746,6.713,5.241,6.713c3.438,0,5.152-2.161,5.152-6.48V16.68h6.229C43.437,16.68,43.437,32.361,43.435,32.361z"/>
</g>
<path fill="none" stroke="#8D8D8D" stroke-width="1.5" stroke-linecap="round" stroke-linejoin="round" stroke-miterlimit="10" d="
	M44.603,4.115c-4.899,0-9.337,2.03-12.603,5.314c-3.265-3.284-7.703-5.314-12.603-5.314C9.375,4.115,1.25,12.57,1.25,23
	c0,18.125,21.563,28.438,30.75,37.625C41.313,51.313,62.75,41.25,62.75,23C62.75,12.57,54.625,4.115,44.603,4.115z"/>
</svg>
