<?xml version="1.0" encoding="utf-8"?>
<!-- Generator: Adobe Illustrator 16.0.0, SVG Export Plug-In . SVG Version: 6.00 Build 0)  -->
<!DOCTYPE svg PUBLIC "-//W3C//DTD SVG 1.1//EN" "http://www.w3.org/Graphics/SVG/1.1/DTD/svg11.dtd">
<svg version="1.1" id="Layer_1" xmlns="http://www.w3.org/2000/svg" xmlns:xlink="http://www.w3.org/1999/xlink" x="0px" y="0px"
	 width="64px" height="64px" viewBox="0 0 64 64" enable-background="new 0 0 64 64" xml:space="preserve">
<g>
	<path fill="#8D8D8D" d="M43.155,32.361c0,8.104-3.771,12.156-11.324,12.156c-7.327,0-10.989-3.957-10.989-11.875v-15.58h6.098
		v15.654c0,4.366,1.703,6.549,5.113,6.549c3.354,0,5.027-2.108,5.027-6.322V17.063h6.077C43.157,17.063,43.157,32.361,43.155,32.361
		z"/>
</g>
<path fill="none" stroke="#8D8D8D" stroke-width="4" stroke-linecap="round" stroke-linejoin="round" stroke-miterlimit="10" d="
	M44.295,4.804c-4.779,0-9.109,1.98-12.295,5.185c-3.186-3.204-7.515-5.185-12.295-5.185C9.927,4.804,2,13.053,2,23.229
	c0,17.683,21.037,27.744,30,36.707c9.085-9.085,30-18.902,30-36.707C62,13.053,54.073,4.804,44.295,4.804z"/>
</svg>
