<?xml version="1.0" encoding="utf-8"?>
<!-- Generator: Adobe Illustrator 16.0.0, SVG Export Plug-In . SVG Version: 6.00 Build 0)  -->
<!DOCTYPE svg PUBLIC "-//W3C//DTD SVG 1.1//EN" "http://www.w3.org/Graphics/SVG/1.1/DTD/svg11.dtd">
<svg version="1.1" id="Layer_1" xmlns="http://www.w3.org/2000/svg" xmlns:xlink="http://www.w3.org/1999/xlink" x="0px" y="0px"
	 width="64px" height="64px" viewBox="0 0 64 64" enable-background="new 0 0 64 64" xml:space="preserve">
<rect fill="none" width="64" height="64"/>
<path fill="none" stroke="#8D8D8D" stroke-width="1.5" stroke-miterlimit="10" d="M32,62.667c0,0-17.938-25.383-18.75-26.582
	c-5.831-8.606-4.889-20.34,2.828-27.931c8.792-8.65,23.051-8.65,31.842,0c7.719,7.592,8.659,19.327,2.83,27.933
	C49.937,37.286,32,62.667,32,62.667z"/>
<ellipse fill="none" stroke="#8D8D8D" stroke-width="1.5" stroke-miterlimit="10" cx="32" cy="23.818" rx="15.627" ry="15.375"/>
<g>
	<path fill="#8D8D8D" d="M40.206,25.381c0,5.864-2.774,8.796-8.33,8.796c-5.389,0-8.082-2.863-8.082-8.593V14.31h4.485v11.33
		c0,3.161,1.252,4.74,3.761,4.74c2.467,0,3.697-1.527,3.697-4.575V14.31h4.47C40.207,14.31,40.207,25.381,40.206,25.381z"/>
</g>
<polygon fill="#8D8D8D" points="64,4 60,4 60,0 57,0 57,4 53,4 53,7 57,7 57,11 60,11 60,7 64,7 "/>
<rect fill="none" width="64" height="64"/>
</svg>
